<?xml version="1.0" encoding="UTF-8"?>
<svg width="689px" height="325px" viewBox="0 0 689 325" version="1.1" xmlns="http://www.w3.org/2000/svg" xmlns:xlink="http://www.w3.org/1999/xlink">
    <!-- Generator: Sketch 52.5 (67469) - http://www.bohemiancoding.com/sketch -->
    <title>Video Illustration</title>
    <desc>Created with Sketch.</desc>
    <defs>
        <path d="M14.5241774,3.20760789 L55.4279804,0.408844227 C55.7934597,24.6663719 52.0706428,37.4964514 44.2595295,38.8990826 C32.5428596,41.0030294 38.750069,35.2465596 29.4537632,38.8990826 C20.1574574,42.5516055 22.4253297,34.9448108 17.2161787,36.9416571 C12.0070276,38.9385034 -5.50698389,40.3280372 2.40338083,32.6024943 C10.6906189,24.5088835 14.7308844,14.710588 14.5241774,3.20760789 Z" id="path-1"></path>
        <path d="M20.9123655,58.6008461 L0.431741793,58.6008461 C0.431741793,58.0180672 0.431741793,56.3303192 0.431741793,53.537602 C0.431741793,45.9143265 15.6791033,47.605026 15.6791033,37.2133454 C15.6791033,26.8216647 11.3430974,25.1507095 11.3430974,15.5485612 C11.3430974,10.1221762 12.9645554,0.208160149 20.9035733,0.200846078 C28.8425902,0.208160149 30.4640481,10.1221762 30.4640481,15.5485612 C30.4640481,25.1507095 26.1280422,26.8216647 26.1280422,37.2133454 C26.1280422,47.605026 41.3754038,45.9143265 41.3754038,53.537602 C41.3754038,56.3303192 41.3754038,58.0180672 41.3754038,58.6008461 L20.9123655,58.6008461 Z M21.2088857,14.1126327 C22.9606064,14.1126327 24.3806566,12.32816 24.3806566,10.1269013 C24.3806566,7.92564269 22.9606064,6.14116998 21.2088857,6.14116998 C19.457165,6.14116998 18.0371148,7.92564269 18.0371148,10.1269013 C18.0371148,12.32816 19.457165,14.1126327 21.2088857,14.1126327 Z" id="path-3"></path>
    </defs>
    <g id="Video-Illustration" stroke="none" stroke-width="1" fill="none" fill-rule="evenodd">
        <g transform="translate(-1.000000, -11.000000)" id="background">
            <g>
                <path d="M472.338333,104.593072 C488.221485,134.757488 441.56795,149.119847 506.083023,150.747079 C570.598096,152.374311 586.479005,169.861791 576.058279,195.998966 C565.637554,222.136141 438.09288,190.61679 444.5445,223.477341 C450.996119,256.337892 549.755524,228.405167 541.31879,281.381754 C532.882057,334.358342 419.729458,275.003211 341.264381,314.764768 C262.799305,354.526325 115,334.476673 115,287.474026 C115,240.47138 192.435065,260.35028 192.435065,236.286617 C192.435065,212.222955 115,234.059895 115,191.218902 C115,148.377909 245.040577,189.232437 245.040577,157.875632 C245.040577,126.518828 147.770008,154.333498 147.770008,115.857707 C147.770008,77.3819163 227.670833,101.019115 232.137338,82.4510747 C236.603844,63.8830341 205.834583,72.8985963 212.78248,46.3674663 C224.480741,1.69667929 482.757938,-6.38135329 422.70825,55.6975767 C387.454346,92.1428049 456.455182,74.4286554 472.338333,104.593072 Z M74.1292601,251.250509 C107.272104,259.63376 74.1292601,320.63497 46.5102238,299.621867 C18.8911875,278.608763 40.9864166,242.867258 74.1292601,251.250509 Z M89.6037252,206.726385 C111.816812,212.466923 109.852371,246.729593 84.6274561,238.821226 C59.4025409,230.912859 67.3906385,200.985846 89.6037252,206.726385 Z M580.603725,260.726385 C602.816812,266.466923 600.852371,300.729593 575.627456,292.821226 C550.402541,284.912859 558.390639,254.985846 580.603725,260.726385 Z M467.154629,32.325099 C501.495856,-1.39185926 623.432095,15.3005855 618.875621,50.9645059 C614.319147,86.6284264 568.187513,53.4138894 565.699018,75.4606194 C563.210524,97.5073495 595.063255,78.1763147 595.063255,102.086796 C595.063255,125.997278 504.482049,135.252415 504.482049,104.370381 C504.482049,87.2942566 521.901512,88.8587119 527.3762,85.118075 C532.850889,81.377438 539.767464,65.9219018 513.363447,66.2760944 C473.624716,66.8091635 446.373848,52.7281196 467.154629,32.325099 Z" id="Combined-Shape" fill-opacity="0.15" fill="#000000"></path>
                <g id="Command-Block-Copy" transform="translate(33.886639, 269.719246) rotate(10.000000) translate(-33.886639, -269.719246) translate(2.386639, 253.219246)">
                    <path d="M62.3054187,6.06828287 L62.3054187,25.5353343 C62.3054187,26.8752112 61.231518,27.9626475 59.9083189,27.9626475 L34.5038549,27.9626475 C33.8662264,27.9626475 33.257363,28.2150881 32.8115024,28.6714229 L29.4651511,32.0599521 C29.0192905,32.5114323 28.4104272,32.7687275 27.7727986,32.7687275 L15.3749983,32.7687275 C14.7421639,32.7687275 14.1333006,32.5114323 13.6778516,32.0599521 L10.3410887,28.6714229 C9.89043389,28.2150881 9.27677633,27.9626475 8.64394198,27.9626475 L2.39709983,27.9626475 C1.07390072,27.9626475 0,26.8752112 0,25.5353343 L0,6.06828287 C0,4.72840602 1.07390072,3.64096972 2.39709983,3.64096972 L8.59599998,3.64096972 C9.23362854,3.64096972 9.84249189,3.89826492 10.2883525,4.34974516 L13.6778516,7.78682058 C14.1333006,8.23830083 14.7421639,8.49559602 15.3749983,8.49559602 L27.7727986,8.49559602 C28.4104272,8.49559602 29.0192905,8.23830083 29.4651511,7.78682058 L32.8546502,4.34974516 C33.3100992,3.89826492 33.9189626,3.64096972 34.5517969,3.64096972 L59.9083189,3.64096972 C61.231518,3.64096972 62.3054187,4.72840602 62.3054187,6.06828287" id="Fill-6-Copy" fill="#855CD6"></path>
                    <path d="M62.3054187,21.8943646 C62.3054187,23.2342415 61.231518,24.3216778 59.9083189,24.3216778 L34.5038549,24.3216778 C33.8662264,24.3216778 33.257363,24.5741183 32.8115024,25.0304532 L29.4651511,28.4189824 C29.0192905,28.8704626 28.4104272,29.1277578 27.7727986,29.1277578 L15.3749983,29.1277578 C14.7421639,29.1277578 14.1333006,28.8704626 13.6778516,28.4189824 L10.3410887,25.0304532 C9.89043389,24.5741183 9.27677633,24.3216778 8.64394198,24.3216778 L2.39709983,24.3216778 C1.07390072,24.3216778 0,23.2342415 0,21.8943646 L0,2.42731315 C0,1.08743629 1.07390072,0 2.39709983,0 L8.59599998,0 C9.23362854,0 9.84249189,0.257295194 10.2883525,0.70877544 L13.6778516,4.14585086 C14.1333006,4.59733111 14.7421639,4.8546263 15.3749983,4.8546263 L27.7727986,4.8546263 C28.4104272,4.8546263 29.0192905,4.59733111 29.4651511,4.14585086 L32.8546502,0.70877544 C33.3100992,0.257295194 33.9189626,0 34.5517969,0 L59.9083189,0 C61.231518,0 62.3054187,1.08743629 62.3054187,2.42731315 L62.3054187,21.8943646 Z" id="Fill-6" fill="#9966FF"></path>
                </g>
                <g id="Hat-Block" transform="translate(602.901108, 40.272764) rotate(-4.000000) translate(-602.901108, -40.272764) translate(562.401108, 18.772764)">
                    <path d="M80.3940887,35.4800823 C80.3940887,36.753597 79.3891626,37.7871742 78.1609195,37.7871742 L32.1442365,37.7871742 C31.5502135,37.7871742 30.9829885,38.0271117 30.5631527,38.460845 L27.4501149,41.6815453 C27.0302791,42.1106644 26.4630542,42.3552161 25.8690312,42.3552161 L14.3235468,42.3552161 C13.7295238,42.3552161 13.1622989,42.1106644 12.7424631,41.6815453 L9.62942529,38.460845 C9.20958949,38.0271117 8.64236453,37.7871742 8.05280788,37.7871742 L2.23316913,37.7871742 C1.00045977,37.7871742 0,36.753597 0,35.4800823 L0,14.6701135 C5.46582178,7.19712971 13.6130679,3.46063782 24.4417384,3.46063782 C35.2704089,3.46063782 43.417655,7.19712971 48.8834768,14.6701135 L78.1609195,14.6701135 C79.3891626,14.6701135 80.3940887,15.7036907 80.3940887,16.9772054 L80.3940887,35.4800823 Z" id="Fill-3-Copy" fill="#E6AC00"></path>
                    <path d="M80.3940887,32.0194445 C80.3940887,33.2929592 79.3891626,34.3265363 78.1609195,34.3265363 L32.1442365,34.3265363 C31.5502135,34.3265363 30.9829885,34.5664739 30.5631527,35.0002072 L27.4501149,38.2209074 C27.0302791,38.6500265 26.4630542,38.8945783 25.8690312,38.8945783 L14.3235468,38.8945783 C13.7295238,38.8945783 13.1622989,38.6500265 12.7424631,38.2209074 L9.62942529,35.0002072 C9.20958949,34.5664739 8.64236453,34.3265363 8.05280788,34.3265363 L2.23316913,34.3265363 C1.00045977,34.3265363 0,33.2929592 0,32.0194445 L0,11.2094757 C5.46582178,3.73649189 13.6130679,6.41580182e-16 24.4417384,0 C35.2704089,0 43.417655,3.73649189 48.8834768,11.2094757 L78.1609195,11.2094757 C79.3891626,11.2094757 80.3940887,12.2430528 80.3940887,13.5165676 L80.3940887,32.0194445 Z" id="Fill-3" fill="#FFBF00"></path>
                </g>
            </g>
        </g>
    </g>
    <g id="Video-Image" stroke="none" stroke-width="1" fill="none" fill-rule="evenodd">
        <g>
            <g id="C---Block" transform="translate(550.000000, 200.000000)">
                <g id="C-Block" transform="translate(48.395879, 39.067544) rotate(10.000000) translate(-48.395879, -39.067544) translate(4.895879, 7.067544)">
                    <path d="M15.9899553,38.142214 C16.5485472,38.142214 17.0855331,38.3648631 17.4807632,38.7605664 L20.461325,41.7462798 C20.8565551,42.1419831 21.3930141,42.3646322 21.9521329,42.3646322 L28.637318,42.3646322 C29.1964369,42.3646322 29.7328958,42.1419831 30.1281259,41.7462798 L33.1086877,38.7605664 C33.5039178,38.3643355 34.0409038,38.142214 34.5994956,38.142214 L84.3157515,38.1437968 C85.4798359,38.1437968 86.4236453,39.0887364 86.4236453,40.2542145 L86.4236453,52.9167205 C86.4236453,54.0821986 85.4798359,55.0271381 84.3157515,55.0271381 L26.1679205,55.0271381 C25.6088016,55.0271381 25.0723427,55.2497872 24.6771126,55.6454905 L21.6965508,58.6296211 C21.3013207,59.0253244 20.7648617,59.2479735 20.2057429,59.2479735 L13.5205577,59.2479735 C12.9614389,59.2479735 12.4249799,59.0253244 12.0297498,58.6296211 L9.04918803,55.6454905 C8.65343097,55.2497872 8.11749898,55.0271381 7.55838015,55.0271381 L2.10789379,55.0271381 C0.943809444,55.0271381 4.54747351e-13,54.0821986 4.54747351e-13,52.9167205 L4.54747351e-13,2.11041766 C4.54747351e-13,0.944939509 0.943809444,-1.36424205e-12 2.10789379,-1.36424205e-12 L7.55838015,-1.36424205e-12 C8.11697201,-1.36424205e-12 8.65395795,0.222121459 9.04918803,0.618352375 L12.0297498,3.60406576 C12.4249799,3.99976908 12.9614389,4.22241814 13.5205577,4.22241814 L20.2057429,4.22241814 C20.7648617,4.22241814 21.3013207,3.99976908 21.6965508,3.60406576 L24.6771126,0.618352375 C25.0723427,0.222121459 25.6088016,-1.36424205e-12 26.1679205,-1.36424205e-12 L84.3157515,-1.36424205e-12 C85.4798359,-1.36424205e-12 86.4236453,0.944939509 86.4236453,2.11041766 L86.4236453,23.2145943 C86.4236453,24.3800724 85.4798359,25.325012 84.3157515,25.325012 L34.5994956,25.325012 C34.0403768,25.325012 33.5039178,25.5471334 33.1086877,25.9433643 L30.1281259,28.9290777 C29.7328958,29.324781 29.1964369,29.5474301 28.637318,29.5474301 L21.9521329,29.5474301 C21.3930141,29.5474301 20.8565551,29.324781 20.461325,28.9290777 L17.4807632,25.9433643 C17.0855331,25.5471334 16.5490741,25.325012 15.9899553,25.325012 L10.5394689,25.325012 C9.3753846,25.325012 8.43157515,26.2699515 8.43157515,27.4354296 L8.43157515,36.032324 C8.43157515,37.1978021 9.3753846,38.1427416 10.5394689,38.1427416 L15.9899553,38.142214 Z" id="Fill-1-Copy-2" fill="#EC9C13"></path>
                    <path d="M15.9899553,42.142214 C16.5485472,42.142214 17.0855331,42.3648631 17.4807632,42.7605664 L20.461325,45.7462798 C20.8565551,46.1419831 21.3930141,46.3646322 21.9521329,46.3646322 L28.637318,46.3646322 C29.1964369,46.3646322 29.7328958,46.1419831 30.1281259,45.7462798 L33.1086877,42.7605664 C33.5039178,42.3643355 34.0409038,42.142214 34.5994956,42.142214 L84.3157515,42.1437968 C85.4798359,42.1437968 86.4236453,43.0887364 86.4236453,44.2542145 L86.4236453,56.9167205 C86.4236453,58.0821986 85.4798359,59.0271381 84.3157515,59.0271381 L26.1679205,59.0271381 C25.6088016,59.0271381 25.0723427,59.2497872 24.6771126,59.6454905 L21.6965508,62.6296211 C21.3013207,63.0253244 20.7648617,63.2479735 20.2057429,63.2479735 L13.5205577,63.2479735 C12.9614389,63.2479735 12.4249799,63.0253244 12.0297498,62.6296211 L9.04918803,59.6454905 C8.65343097,59.2497872 8.11749898,59.0271381 7.55838015,59.0271381 L2.10789379,59.0271381 C0.943809444,59.0271381 4.54747351e-13,58.0821986 4.54747351e-13,56.9167205 L4.54747351e-13,6.11041766 C4.54747351e-13,4.94493951 0.943809444,4 2.10789379,4 L7.55838015,4 C8.11697201,4 8.65395795,4.22212146 9.04918803,4.61835238 L12.0297498,7.60406576 C12.4249799,7.99976908 12.9614389,8.22241814 13.5205577,8.22241814 L20.2057429,8.22241814 C20.7648617,8.22241814 21.3013207,7.99976908 21.6965508,7.60406576 L24.6771126,4.61835238 C25.0723427,4.22212146 25.6088016,4 26.1679205,4 L84.3157515,4 C85.4798359,4 86.4236453,4.94493951 86.4236453,6.11041766 L86.4236453,27.2145943 C86.4236453,28.3800724 85.4798359,29.325012 84.3157515,29.325012 L34.5994956,29.325012 C34.0403768,29.325012 33.5039178,29.5471334 33.1086877,29.9433643 L30.1281259,32.9290777 C29.7328958,33.324781 29.1964369,33.5474301 28.637318,33.5474301 L21.9521329,33.5474301 C21.3930141,33.5474301 20.8565551,33.324781 20.461325,32.9290777 L17.4807632,29.9433643 C17.0855331,29.5471334 16.5490741,29.325012 15.9899553,29.325012 L10.5394689,29.325012 C9.3753846,29.325012 8.43157515,30.2699515 8.43157515,31.4354296 L8.43157515,40.032324 C8.43157515,41.1978021 9.3753846,42.1427416 10.5394689,42.1427416 L15.9899553,42.142214 Z" id="Fill-1" fill="#FFAB19"></path>
                </g>
            </g>
            <g id="Command-Block-Copy-2" transform="translate(100.895658, 50) rotate(-10.000000) translate(-40.895658, -116.294786) translate(2.895658, 96.294786)">
                <path d="M75.1620924,7.35549439 L75.1620924,30.9519204 C75.1620924,32.5760136 73.8665931,33.8941182 72.2703529,33.8941182 L41.623698,33.8941182 C40.8544953,33.8941182 40.1199935,34.2001067 39.5821299,34.7532399 L35.5452616,38.860548 C35.0073981,39.4077968 34.2728963,39.7196697 33.5036936,39.7196697 L18.547617,39.7196697 C17.7841978,39.7196697 17.0496959,39.4077968 16.5002654,38.860548 L12.4749641,34.7532399 C11.9313171,34.2001067 11.1910318,33.8941182 10.4276125,33.8941182 L2.89173947,33.8941182 C1.29549928,33.8941182 0,32.5760136 0,30.9519204 L0,7.35549439 C0,5.73140123 1.29549928,4.41329664 2.89173947,4.41329664 L10.3697778,4.41329664 C11.1389805,4.41329664 11.8734823,4.7251696 12.4113458,5.27241838 L16.5002654,9.43857041 C17.0496959,9.98581919 17.7841978,10.2976922 18.547617,10.2976922 L33.5036936,10.2976922 C34.2728963,10.2976922 35.0073981,9.98581919 35.5452616,9.43857041 L39.6341812,5.27241838 C40.1836117,4.7251696 40.9181136,4.41329664 41.6815328,4.41329664 L72.2703529,4.41329664 C73.8665931,4.41329664 75.1620924,5.73140123 75.1620924,7.35549439" id="Fill-6-Copy" fill="#BD42BD"></path>
                <path d="M75.1620924,26.5386238 C75.1620924,28.1627169 73.8665931,29.4808215 72.2703529,29.4808215 L41.623698,29.4808215 C40.8544953,29.4808215 40.1199935,29.7868101 39.5821299,30.3399433 L35.5452616,34.4472513 C35.0073981,34.9945001 34.2728963,35.3063731 33.5036936,35.3063731 L18.547617,35.3063731 C17.7841978,35.3063731 17.0496959,34.9945001 16.5002654,34.4472513 L12.4749641,30.3399433 C11.9313171,29.7868101 11.1910318,29.4808215 10.4276125,29.4808215 L2.89173947,29.4808215 C1.29549928,29.4808215 0,28.1627169 0,26.5386238 L0,2.94219776 C0,1.3181046 1.29549928,0 2.89173947,0 L10.3697778,0 C11.1389805,0 11.8734823,0.311872962 12.4113458,0.859121745 L16.5002654,5.02527377 C17.0496959,5.57252255 17.7841978,5.88439551 18.547617,5.88439551 L33.5036936,5.88439551 C34.2728963,5.88439551 35.0073981,5.57252255 35.5452616,5.02527377 L39.6341812,0.859121745 C40.1836117,0.311872962 40.9181136,0 41.6815328,0 L72.2703529,0 C73.8665931,0 75.1620924,1.3181046 75.1620924,2.94219776 L75.1620924,26.5386238 Z" id="Fill-6" fill="#CF63CF"></path>
            </g>
        </g>
    </g>
    <g id="discord-logo" transform="translate(180.000000, 10.000000) scale(6, 6)">
        <path d="M40 12s-4.586-3.59-10-4l-.488.977C34.406 10.176 36.652 11.89 39 14c-4.047-2.066-8.04-4-15-4-6.96 0-10.953 1.934-15 4 2.348-2.11 5.02-4.016 9.488-5.023L18 8c-5.68.535-10 4-10 4s-5.121 7.426-6 22c5.16 5.953 13 6 13 6l1.64-2.184C13.856 36.848 10.716 35.121 8 32c3.238 2.45 8.125 5 16 5s12.762-2.55 16-5c-2.715 3.121-5.855 4.848-8.64 5.816L33 40s7.84-.047 13-6c-.879-14.574-6-22-6-22zM17.5 30c-1.934 0-3.5-1.79-3.5-4s1.566-4 3.5-4 3.5 1.79 3.5 4-1.566 4-3.5 4zm13 0c-1.934 0-3.5-1.79-3.5-4s1.566-4 3.5-4 3.5 1.79 3.5 4-1.566 4-3.5 4z" fill="#ffffff" id="surface1"/>
    </g>
</svg>
